<?xml version="1.0" encoding="UTF-8"?>
<svg width="64px" height="64px" viewBox="0 0 64 64" version="1.1" xmlns="http://www.w3.org/2000/svg" xmlns:xlink="http://www.w3.org/1999/xlink">
    <!-- Generator: Sketch 48.2 (47327) - http://www.bohemiancoding.com/sketch -->
    <title>Artboard</title>
    <desc>Created with Sketch.</desc>
    <defs></defs>
    <g id="Social-icons" stroke="none" stroke-width="1" fill="none" fill-rule="evenodd">
        <g id="Artboard" fill="#377AFF" fill-rule="nonzero">
            <g id="telegram" transform="translate(0.000000, 4.000000)">
                <path d="M62.6382979,0.612765957 C61.7531915,-0.136170213 60.3234043,-0.204255319 57.8723404,0.544680851 C57.8723404,0.544680851 57.8723404,0.544680851 57.8723404,0.544680851 C56.1702128,1.0893617 41.0553191,6.80851064 27.7106383,12.3234043 C15.7276596,17.293617 5.99148936,21.6510638 4.83404255,22.1957447 C3.54042553,22.6042553 0.74893617,23.8297872 0.612765957,25.7361702 C0.544680851,26.9617021 1.56595745,28.0510638 3.54042553,28.9361702 C5.65106383,30.0255319 14.9787234,33.1574468 16.9531915,33.7702128 C17.6340426,36.0851064 21.6510638,49.6340426 21.8553191,50.4510638 C22.1276596,51.6765957 22.9446809,52.3574468 23.3531915,52.6297872 C23.4212766,52.6978723 23.5574468,52.8340426 23.693617,52.9021277 C23.8978723,53.0382979 24.1702128,53.106383 24.5106383,53.106383 C24.987234,53.106383 25.5319149,52.9021277 26.0085106,52.5617021 C28.5276596,50.5191489 32.8851064,45.9574468 34.1106383,44.6638298 C39.4893617,48.8851064 45.3446809,53.5829787 45.8893617,54.1276596 C45.8893617,54.1276596 45.9574468,54.1957447 45.9574468,54.1957447 C47.2510638,55.2851064 48.612766,55.8978723 49.8382979,55.8978723 C50.2468085,55.8978723 50.6553191,55.8297872 51.0638298,55.693617 C52.493617,55.2170213 53.5148936,53.8553191 53.8553191,52.0170213 C53.8553191,51.9489362 53.9234043,51.6765957 54.0595745,51.2 C56.3744681,41.1234043 58.212766,32.2723404 59.7106383,24.8510638 C61.1404255,17.5659574 62.2978723,10.4170213 62.9787234,6.60425532 C63.1148936,5.65106383 63.2510638,4.90212766 63.3191489,4.42553191 C63.5234043,3.06382979 63.6595745,1.49787234 62.6382979,0.612765957 Z M18.3829787,33.5659574 L50.8595745,12.0510638 C50.9276596,11.9829787 51.0638298,11.9148936 51.1319149,11.8468085 C51.1319149,11.8468085 51.1319149,11.8468085 51.1319149,11.8468085 C51.2,11.8468085 51.2,11.7787234 51.2680851,11.7787234 C51.3361702,11.7787234 51.3361702,11.7787234 51.4042553,11.7106383 C51.3361702,11.7787234 51.2680851,11.9829787 51.1319149,12.1191489 L42.893617,19.812766 C37.1744681,25.0553191 29.6851064,31.9319149 24.7148936,36.4255319 C24.7148936,36.4255319 24.7148936,36.4255319 24.7148936,36.493617 C24.7148936,36.493617 24.6468085,36.5617021 24.6468085,36.5617021 C24.6468085,36.5617021 24.6468085,36.6297872 24.5787234,36.6297872 C24.5787234,36.6978723 24.5787234,36.6978723 24.5106383,36.7659574 C24.5106383,36.7659574 24.5106383,36.8340426 24.5106383,36.8340426 C24.5106383,36.8340426 24.5106383,36.8340426 24.5106383,36.9021277 C24.1702128,40.7148936 23.5574468,47.2510638 23.2851064,50.1787234 C23.2851064,50.1787234 23.2851064,50.1787234 23.2851064,50.1106383 C23.012766,49.293617 19.2,36.2893617 18.3829787,33.5659574 Z" id="Shape"></path>
            </g>
        </g>
    </g>
</svg>