<?xml version="1.0" encoding="UTF-8"?>
<svg width="64px" height="64px" viewBox="0 0 64 64" version="1.1" xmlns="http://www.w3.org/2000/svg" xmlns:xlink="http://www.w3.org/1999/xlink">
    <!-- Generator: Sketch 48.2 (47327) - http://www.bohemiancoding.com/sketch -->
    <title>Artboard</title>
    <desc>Created with Sketch.</desc>
    <defs></defs>
    <g id="Social-icons" stroke="none" stroke-width="1" fill="none" fill-rule="evenodd">
        <g id="Artboard" fill="#377AFF" fill-rule="nonzero">
            <g id="twitter" transform="translate(0.000000, 5.000000)">
                <path d="M64,6.48126812 C63.6930124,8.8910033 60.1982574,11.3086936 58.0809037,13.1403166 C60.1700886,43.9393613 25.3730326,63.1515157 0,47.5447049 C7.11626959,47.5981735 15.0035292,45.6448769 19.2369324,41.6257391 C13.0817922,40.6286163 8.72097743,37.837168 7.0288942,32.377249 C8.83182681,32.2070626 11.3621922,32.7644394 12.5780143,32.0074033 C6.94764812,29.8689231 2.49554565,26.5525704 2.2197263,19.059152 C4.22518726,19.273287 5.26769311,20.450377 7.76871602,20.1690804 C4.12790063,17.8347228 -0.0294728949,8.95855622 3.69950036,2.41192205 C10.3070365,9.73880547 18.5554043,15.4249876 31.445101,16.4697104 C28.2475528,2.8720122 46.2721841,-5.55358423 54.3815338,4.26167223 C57.5343511,3.59175072 60.191476,2.42613685 62.8900716,1.30212411 C61.7848381,4.38973587 59.5396816,6.33677269 57.3409515,8.3310183 C59.7307338,7.88462131 62.2557523,7.57346057 64,6.48126812 Z" id="Shape"></path>
            </g>
        </g>
    </g>
</svg>