<?xml version="1.0" encoding="UTF-8"?>
<svg width="64px" height="64px" viewBox="0 0 64 64" version="1.1" xmlns="http://www.w3.org/2000/svg" xmlns:xlink="http://www.w3.org/1999/xlink">
    <!-- Generator: Sketch 48.2 (47327) - http://www.bohemiancoding.com/sketch -->
    <title>Artboard</title>
    <desc>Created with Sketch.</desc>
    <defs></defs>
    <g id="Social-icons" stroke="none" stroke-width="1" fill="none" fill-rule="evenodd">
        <g id="Artboard" fill-rule="nonzero">
            <g id="youtube" transform="translate(0.000000, 8.000000)">
                <path d="M63.337875,10.4942063 C63.337875,10.4942063 62.67575,5.74414578 60.8,3.64535457 C58.372375,0.883714735 55.61375,0.883714735 54.4,0.773219109 C45.462125,0.110495626 32,0 32,0 C32,0 18.537875,0.110495626 9.6,0.773219109 C8.38625,0.883714735 5.627625,0.994210362 3.2,3.64535457 C1.21375,5.74427092 0.662125,10.4942063 0.662125,10.4942063 C0.662125,10.4942063 0,16.1279816 0,21.7617569 L0,26.9536748 C0,32.5874501 0.662125,38.1107298 0.662125,38.1107298 C0.662125,38.1107298 1.32425,42.8607904 3.2,44.9595816 C5.627625,47.7212214 8.827625,47.6107258 10.262125,47.9422126 C15.337875,48.4943154 32,48.604811 32,48.604811 C32,48.604811 45.462125,48.604811 54.4,47.8315919 C55.61375,47.7210963 58.372375,47.6106006 60.8,44.9594564 C62.675875,42.8606652 63.337875,38.1106047 63.337875,38.1106047 C63.337875,38.1106047 64,32.4768294 64,26.9535497 L64,21.7616318 C64,16.1279816 63.337875,10.4942063 63.337875,10.4942063" id="Shape" fill="#377AFF"></path>
                <polygon id="Shape" fill="#FFFFFF" points="24.1924399 13.1958763 24.1924399 37.1683849 45.0859107 25.4583865"></polygon>
            </g>
        </g>
    </g>
</svg>